<?xml version="1.0" encoding="UTF-8"?>
<svg id="Calque_6" data-name="Calque 6" xmlns="http://www.w3.org/2000/svg" viewBox="0 0 900 900">
  <defs>
    <style>
      .cls-1 {
        fill: #9DE05A;
      }
    </style>
  </defs>
  <path class="cls-1" d="M208.25,458.08c1.71,17.7,8.86,34.44,20.45,47.91l310.07,361.75c14.59,18.2,35.94,29.7,59.17,31.89,23.23,2.17,46.33-5.15,64.06-20.33,17.72-15.16,28.54-36.88,29.97-60.15,1.43-23.29-6.64-46.15-22.39-63.38L407.41,450,669.58,144.24c15.73-17.23,23.8-40.1,22.37-63.38-1.42-23.27-12.23-44.99-29.96-60.15-17.72-15.18-40.84-22.51-64.07-20.33-23.23,2.19-44.57,13.69-59.15,31.89L228.7,394.01c-15.22,17.7-22.6,40.82-20.46,64.06h.01Z"/>
</svg>