<?xml version="1.0" encoding="UTF-8"?>
<svg id="Calque_4" data-name="Calque 4" xmlns="http://www.w3.org/2000/svg" viewBox="0 0 817.65 900.01">
  <defs>
    <style>
      .cls-1 {
        fill: #9DE05A;
      }
    </style>
  </defs>
  <path class="cls-1" d="M501.79,748.89c-18.43,6.33-32.1,22.02-35.83,41.16-3.74,19.13,3.02,38.81,17.72,51.61,14.7,12.8,35.13,16.79,53.57,10.45,100.47-33.29,184.13-104.23,233.4-197.92,49.26-93.68,60.29-202.82,30.78-304.47-29.51-101.65-97.27-187.9-189.05-240.63h94.36c13.92,.31,27.44-4.56,37.97-13.65s17.31-21.77,19.03-35.57c1.5-15.36-3.58-30.65-13.97-42.06C739.37,6.4,724.63-.08,709.19,0h-163.63C516.63,0,488.88,11.5,468.42,31.95c-20.45,20.46-31.95,48.21-31.95,77.14v161.31c-.28,13.89,4.6,27.38,13.7,37.89s21.74,17.26,35.53,18.99c15.37,1.5,30.65-3.58,42.06-13.97,11.4-10.4,17.88-25.14,17.81-40.58v-76.23c70.79,36.19,124.32,99.01,148.83,174.64,24.51,75.63,17.99,157.9-18.13,228.74-36.11,70.82-98.86,124.42-174.47,149.02h0Z"/>
  <path class="cls-1" d="M27.41,850.77c1.72,13.78,8.47,26.43,18.98,35.53,10.5,9.09,24,13.97,37.89,13.7H245.6c28.93,0,56.68-11.5,77.13-31.95,20.46-20.46,31.96-48.21,31.96-77.14v-161.31c.28-13.89-4.6-27.38-13.7-37.89-9.09-10.5-21.75-17.26-35.54-18.99-15.36-1.5-30.64,3.58-42.05,13.97-11.42,10.4-17.88,25.14-17.81,40.58v87.54c-61.27-39.98-105.83-100.96-125.28-171.48-19.45-70.52-12.46-145.72,19.65-211.44,32.11-65.73,87.13-117.47,154.72-145.46,9.73-4.25,18.01-11.25,23.83-20.15,5.81-8.88,8.9-19.28,8.89-29.9,.06-18.29-9.06-35.4-24.28-45.55-15.23-10.15-34.53-11.99-51.39-4.9-89.18,37.16-162.32,104.68-206.49,190.61C1.08,362.47-11.25,461.25,10.45,555.39c21.7,94.15,76.02,177.57,153.33,235.51H81.96c-15.44-.08-30.18,6.4-40.58,17.81-10.41,11.41-15.48,26.69-13.97,42.06h0Z"/>
</svg>