<svg width="258" height="58" viewBox="0 0 258 58" fill="none" xmlns="http://www.w3.org/2000/svg">
<g filter="url(#filter0_d_145_85)">
<rect x="4" width="250" height="50" rx="25" fill="#E2E4D4"/>
</g>
<path d="M233.958 27.8333H232.839L232.443 27.4508C233.831 25.8358 234.667 23.7392 234.667 21.4583C234.667 16.3725 230.544 12.25 225.458 12.25C220.373 12.25 216.25 16.3725 216.25 21.4583C216.25 26.5442 220.373 30.6667 225.458 30.6667C227.739 30.6667 229.836 29.8308 231.451 28.4425L231.833 28.8392V29.9583L238.917 37.0275L241.028 34.9167L233.958 27.8333ZM225.458 27.8333C221.931 27.8333 219.083 24.9858 219.083 21.4583C219.083 17.9308 221.931 15.0833 225.458 15.0833C228.986 15.0833 231.833 17.9308 231.833 21.4583C231.833 24.9858 228.986 27.8333 225.458 27.8333Z" fill="#97988D"/>
<defs>
<filter id="filter0_d_145_85" x="0" y="0" width="258" height="58" filterUnits="userSpaceOnUse" color-interpolation-filters="sRGB">
<feFlood flood-opacity="0" result="BackgroundImageFix"/>
<feColorMatrix in="SourceAlpha" type="matrix" values="0 0 0 0 0 0 0 0 0 0 0 0 0 0 0 0 0 0 127 0" result="hardAlpha"/>
<feOffset dy="4"/>
<feGaussianBlur stdDeviation="2"/>
<feComposite in2="hardAlpha" operator="out"/>
<feColorMatrix type="matrix" values="0 0 0 0 0 0 0 0 0 0 0 0 0 0 0 0 0 0 0.25 0"/>
<feBlend mode="normal" in2="BackgroundImageFix" result="effect1_dropShadow_145_85"/>
<feBlend mode="normal" in="SourceGraphic" in2="effect1_dropShadow_145_85" result="shape"/>
</filter>
</defs>
</svg>
