<?xml version="1.0" encoding="UTF-8"?>
<svg id="Calque_3" data-name="Calque 3" xmlns="http://www.w3.org/2000/svg" viewBox="0 0 899.98 467.46">
  <defs>
    <style>
      .cls-1 {
        fill: #fff;
      }
    </style>
  </defs>
  <path class="cls-1" d="M777.88,214.02c28.01-20.42,46.25-53.47,46.25-90.71,0-61.85-50.33-112.18-112.2-112.18s-112.18,50.33-112.18,112.18c0,37.25,18.25,70.31,46.27,90.73-27.83,10.42-53,27.37-73.25,49.65-16.58-11.34-34.81-20.45-54.23-26.9,35.9-22.77,59.79-62.88,59.79-108.45C578.33,57.57,520.76,0,450,0s-128.34,57.57-128.34,128.34c0,45.57,23.88,85.68,59.79,108.45-19.42,6.45-37.64,15.56-54.22,26.9-20.26-22.28-45.43-39.23-73.26-49.65,28.02-20.42,46.27-53.47,46.27-90.73,0-61.85-50.33-112.18-112.2-112.18S75.86,61.46,75.86,123.31c0,37.24,18.24,70.29,46.25,90.71C50.85,240.79,0,309.63,0,390.13c0,13.09,10.6,23.69,23.68,23.69s23.68-10.6,23.68-23.68c0-77.57,63.1-140.68,140.68-140.68,39.43,0,76.74,16.55,103.18,45.04-36.72,39.04-59.26,91.57-59.26,149.28,0,13.08,10.6,23.68,23.68,23.68s23.68-10.6,23.68-23.68c0-51.08,22.55-96.98,58.22-128.28,.81-.61,1.57-1.28,2.29-1.98,29.75-25.2,68.21-40.41,110.16-40.41s80.41,15.21,110.16,40.41c.71,.7,1.47,1.36,2.29,1.98,35.67,31.3,58.22,77.21,58.22,128.28,0,13.08,10.6,23.68,23.68,23.68s23.68-10.6,23.68-23.68c0-57.7-22.53-110.24-59.26-149.28,26.43-28.5,63.75-45.04,103.18-45.04,77.57,0,140.68,63.1,140.68,140.68,0,13.08,10.6,23.68,23.68,23.68s23.68-10.6,23.68-23.68c0-80.5-50.84-149.35-122.12-176.11h.02Zm-589.84-25.91c-35.74,0-64.81-29.08-64.81-64.83s29.08-64.81,64.81-64.81,64.83,29.08,64.83,64.81-29.08,64.83-64.83,64.83Zm261.95,21.16c-44.65,0-80.97-36.32-80.97-80.96s36.32-80.97,80.97-80.97,80.96,36.32,80.96,80.97-36.32,80.96-80.96,80.96h0Zm261.95-21.16c-35.74,0-64.81-29.08-64.81-64.83s29.08-64.81,64.81-64.81,64.83,29.08,64.83,64.81-29.08,64.83-64.83,64.83h0Z"/>
</svg>