<?xml version="1.0" encoding="UTF-8"?>
<svg id="Search" xmlns="http://www.w3.org/2000/svg" viewBox="0 0 900 900">
  <defs>
    <style>
      .cls-1 {
        fill: #9de05a;
      }
    </style>
  </defs>
  <path class="cls-1" d="M864.73,748.26l-236.32-187.98c42.96-57.74,69.82-130.25,69.82-209.47C698.22,158.8,541.12,1.7,349.11,1.7,157.11,1.71,0,158.81,0,350.81s157.1,349.11,349.11,349.11c79.22,0,151.73-26.85,209.46-69.82l187.98,236.32c45.65,48.34,102.05,36.26,130.25,0,29.54-36.25,36.26-72.5-12.08-118.15h0Zm-515.61-155.76c-132.93,0-241.69-108.76-241.69-241.69S216.18,109.12,349.12,109.12s241.69,108.76,241.69,241.69-108.76,241.69-241.69,241.69Z"/>
</svg>