<?xml version="1.0" encoding="UTF-8"?>
<svg id="Calque_8" data-name="Calque 8" xmlns="http://www.w3.org/2000/svg" viewBox="0 0 900 900">
  <defs>
    <style>
      .cls-1 {
        fill: #9DE05A;
      }
    </style>
  </defs>
  <path class="cls-1" d="M894.71,431.26c-247.34-352.86-642.75-352.05-889.41,0C1.85,436.51,0,442.64,0,448.91,0,455.18,1.83,461.32,5.27,466.56c7.12,10.88,177.79,266.51,444.73,266.51,33.04-3.08,100.3,6.84,95.96-43.05-10.53-45.45-63.96-16.93-95.96-21.24-194.09,0-336.09-164.73-378.15-219.82,42.19-55.09,184.58-219.88,378.15-219.88s336.16,164.98,378.21,219.99c-53.67,71.45-121.9,130.7-200.17,173.83-10.02,5.39-16.44,15.67-16.89,27.04-.45,11.36,5.13,22.12,14.69,28.29,9.56,6.17,21.67,6.83,31.83,1.74,94.62-51.72,175.83-124.84,237.14-213.52,3.4-5.24,5.2-11.36,5.18-17.61-.03-6.24-1.87-12.35-5.3-17.56h.02Z"/>
  <path class="cls-1" d="M400.17,350.35c10.08-5.25,16.64-15.45,17.23-26.81,.6-11.35-4.84-22.18-14.32-28.47-9.47-6.29-21.57-7.1-31.8-2.13-47.15,23.78-81.02,67.62-92.15,119.25-11.12,51.64,1.71,105.53,34.89,146.62,33.18,41.09,83.16,64.98,135.98,64.98s102.8-23.89,135.98-64.98c33.18-41.09,46.01-94.98,34.88-146.62-11.12-51.63-44.99-95.47-92.15-119.25-10.23-4.98-22.33-4.18-31.82,2.11-9.49,6.29-14.94,17.13-14.33,28.49,.6,11.36,7.17,21.56,17.28,26.81,29.8,15.05,51.18,42.78,58.2,75.42,7.01,32.64-1.1,66.7-22.09,92.67-20.98,25.97-52.58,41.06-85.96,41.06s-64.98-15.09-85.96-41.06c-20.98-25.97-29.1-60.03-22.08-92.67,7.01-32.64,28.41-60.36,58.2-75.42h0Z"/>
</svg>