<?xml version="1.0" encoding="UTF-8"?>
<svg id="Info" xmlns="http://www.w3.org/2000/svg" viewBox="0 0 900 900">
  <path d="M450,900c-120.2,0-233.2-46.81-318.2-131.8C46.81,683.21,0,570.2,0,450S46.81,216.8,131.8,131.8C216.8,46.81,329.8,0,450,0s233.2,46.81,318.2,131.8c84.99,84.99,131.8,198,131.8,318.2s-46.81,233.21-131.8,318.2c-84.99,84.99-198,131.8-318.2,131.8Zm0-818.18c-203.02,0-368.18,165.17-368.18,368.18s165.17,368.18,368.18,368.18,368.18-165.17,368.18-368.18S653.02,81.82,450,81.82Z"/>
  <path d="M450,654.55c-22.59,0-40.91-18.32-40.91-40.91v-163.63c0-22.59,18.32-40.91,40.91-40.91s40.91,18.31,40.91,40.91v163.63c0,22.59-18.32,40.91-40.91,40.91Z"/>
  <path d="M450,327.28c-22.59,0-40.91-18.31-40.91-40.91s18.31-40.91,40.91-40.91,40.91,18.32,40.91,40.91-18.31,40.91-40.91,40.91Z"/>
</svg>