<?xml version="1.0" encoding="UTF-8"?>
<svg id="Calque_1" data-name="Calque 1" xmlns="http://www.w3.org/2000/svg" viewBox="0 0 900 896.6">
  <path d="M864.73,746.57l-236.32-187.98c42.96-57.74,69.82-130.25,69.82-209.47C698.22,157.11,541.12,0,349.11,0,157.11,0,0,157.11,0,349.11s157.1,349.11,349.11,349.11c79.22,0,151.73-26.85,209.46-69.82l187.98,236.32c45.65,48.34,102.05,36.26,130.25,0,29.54-36.25,36.26-72.5-12.08-118.15h0Zm-515.61-155.76c-132.93,0-241.69-108.76-241.69-241.69S216.18,107.42,349.12,107.42s241.69,108.76,241.69,241.69-108.76,241.69-241.69,241.69Z"/>
</svg>